<svg xmlns="http://www.w3.org/2000/svg" xmlns:xlink="http://www.w3.org/1999/xlink" viewBox="0 0 473.56 328"><defs><style>.cls-1{isolation:isolate;}.cls-2{opacity:0.75;mix-blend-mode:multiply;}.cls-3{fill:#fff;}</style></defs><g class="cls-1"><g id="Camada_1" data-name="Camada 1"><image class="cls-2" width="340" height="345" transform="translate(74 -3)" xlink:href="shop%20whitePrancheta%2020%20c%C3%B3pia%2021.png"/><path class="cls-3" d="M159.57,243.08H351.09c7.77,0,11.85,6.56,8.42,13.61a6.79,6.79,0,0,1-6,4.07c-1.78.11-3.57.07-5.36.07H143.5a34.34,34.34,0,0,1-3.66-.1c-2.55-.27-4.78-1.59-5.32-4-1.08-4.9-2.07-9.8,1.92-14.3,8.65-9.78,17-19.84,25.55-29.7a5.11,5.11,0,0,0,1.25-5.07c-9.32-40.65-18.67-81.29-27.74-122-4.07-18.24-7.62-36.59-11.22-54.93-.5-2.57-1.65-3.26-4-3.59-10-1.39-20.07-2.95-30.1-4.48-5.36-.81-8.36-4.54-7.74-9.53.72-5.76,4.38-8.83,10.08-8,14.14,2,28.25,4.19,42.37,6.29,2.73.4,4,2.05,4.48,4.66,4.39,21.35,8.9,42.67,13.2,64,.53,2.61,1.53,3.21,4,3.21q112.34-.1,224.68,0c.56,0,1.13,0,1.69,0,6.37.14,9.64,4.64,7.54,10.66-4.51,12.94-9.12,25.86-13.7,38.78q-12.4,35.07-24.83,70.13c-1.82,5.15-4.1,6.69-9.62,7q-58.67,3.54-117.32,7.11c-14.07.85-28.13,1.74-42.21,2.48a7.12,7.12,0,0,0-5.72,2.8c-5,6.1-10.2,12-15.32,18C161.22,241,160.66,241.73,159.57,243.08Z"/><path class="cls-3" d="M191.18,320a27,27,0,1,1,27-27.12A26.94,26.94,0,0,1,191.18,320Z"/><path class="cls-3" d="M314.25,320a27,27,0,1,1,27.26-26.86A26.86,26.86,0,0,1,314.25,320Z"/></g></g></svg>