<svg xmlns="http://www.w3.org/2000/svg" xmlns:xlink="http://www.w3.org/1999/xlink" viewBox="0 0 473.56 328"><defs><style>.cls-1{isolation:isolate;}.cls-2{opacity:0.75;mix-blend-mode:multiply;}.cls-3{fill:#fff;}.cls-4{font-size:131.83px;fill:#29abe2;font-family:Calibri-Bold, Calibri;font-weight:700;}</style></defs><g class="cls-1"><g id="Camada_1" data-name="Camada 1"><image class="cls-2" width="280" height="285" transform="translate(15 56)" xlink:href="cart%20whitePrancheta%2020%20c%C3%B3pia%2021.png"/><path class="cls-3" d="M85.64,256.77H240.57c6.28,0,9.58,5.3,6.81,11a5.52,5.52,0,0,1-4.85,3.3c-1.44.09-2.88.05-4.33.05H72.64a26.53,26.53,0,0,1-3-.08c-2.07-.21-3.87-1.28-4.31-3.23-.88-4-1.67-7.92,1.55-11.56,7-7.92,13.75-16,20.67-24a4.15,4.15,0,0,0,1-4.1c-7.53-32.88-15.1-65.76-22.44-98.68C62.87,114.69,60,99.85,57.09,85c-.41-2.08-1.34-2.64-3.23-2.9C45.74,81,37.63,79.72,29.51,78.49c-4.33-.66-6.76-3.68-6.25-7.72.58-4.65,3.54-7.14,8.15-6.48,11.44,1.62,22.85,3.39,34.28,5.08,2.21.33,3.19,1.67,3.62,3.78,3.55,17.27,7.2,34.51,10.68,51.79.42,2.12,1.23,2.6,3.26,2.6q90.89-.08,181.76,0c.46,0,.91,0,1.37,0,5.15.11,7.79,3.76,6.1,8.62-3.65,10.47-7.39,20.92-11.09,31.38q-10,28.37-20.08,56.72c-1.48,4.17-3.32,5.42-7.78,5.69q-47.46,2.85-94.91,5.75c-11.38.69-22.76,1.4-34.14,2a5.77,5.77,0,0,0-4.63,2.26c-4,5-8.26,9.75-12.4,14.6C87,255.08,86.51,255.68,85.64,256.77Z"/><path class="cls-3" d="M111.2,319A21.84,21.84,0,1,1,133,297.05,21.79,21.79,0,0,1,111.2,319Z"/><path class="cls-3" d="M210.76,319a21.85,21.85,0,1,1,22.05-21.72A21.73,21.73,0,0,1,210.76,319Z"/><circle class="cls-3" cx="382.45" cy="71.81" r="67.91"/><text class="cls-4" transform="translate(351.32 111.43)">+</text></g></g></svg>