<svg id="Camada_1" data-name="Camada 1" xmlns="http://www.w3.org/2000/svg" viewBox="0 0 473.56 328"><path d="M218.85,203.09c0-.9,0-1.47,0-2V142.17q0-45.27,0-90.54A17,17,0,0,1,234.5,34.24,17.27,17.27,0,0,1,251.3,43a16.83,16.83,0,0,1,2.1,7.81c0,.57,0,1.14,0,1.72V203c.58.1.76-.31,1-.55q6.43-6.22,12.86-12.46l30.36-29.4c.34-.33.68-.67,1-1a13.87,13.87,0,0,1,18.77.18c.91.84,1.79,1.72,2.65,2.62a13.18,13.18,0,0,1,0,18.16c-.39.42-.81.81-1.22,1.21l-72.74,70.47a14.3,14.3,0,0,1-6.29,3.83,13.59,13.59,0,0,1-13.63-3.42c-2.8-2.67-5.51-5.43-8.27-8.14l-50.77-50.11q-7-6.94-14.08-13.88a13.21,13.21,0,0,1-3.71-6.19,12.78,12.78,0,0,1,2.76-12.05,32.47,32.47,0,0,1,3.9-3.79,13.82,13.82,0,0,1,18.11.63c2.19,2,4.3,4.2,6.44,6.32l37,36.53C218,202.29,218.28,202.56,218.85,203.09Z"/><path d="M346.59,196.63c1.31-.21,24-.23,25.43,0,0,.25.09.52.1.79,0,.43,0,.86,0,1.29,0,15.09-.13,30.18,0,45.27.24,22.93-15.74,42.7-37.68,48.29a51.94,51.94,0,0,1-12.9,1.62q-84.81,0-169.62,0a49.8,49.8,0,0,1-36.33-15.05,48,48,0,0,1-13.37-25.17,45.88,45.88,0,0,1-.86-8.83q0-23.34,0-46.7c0-.47,0-.94,0-1.44a3.25,3.25,0,0,1,1.58-.18c4.25,0,8.5,0,12.75,0h9.6l1.47,0a10.1,10.1,0,0,1,.13,1.06c0,1.05,0,2.1,0,3.15q0,21.78,0,43.56A23.29,23.29,0,0,0,130.54,257a24.41,24.41,0,0,0,16.94,11.41c1.45.26,2.94.28,4.41.4.33,0,.67,0,1,0H320.8a25.92,25.92,0,0,0,8.88-1.3c8.32-3,13.8-8.64,16.17-17.2a23,23,0,0,0,.75-6.24q0-19.05,0-38.11v-9.37Z"/></svg>