<svg xmlns="http://www.w3.org/2000/svg" xmlns:xlink="http://www.w3.org/1999/xlink" viewBox="0 0 475 329"><defs><style>.cls-1{isolation:isolate;}.cls-2{opacity:0.75;mix-blend-mode:multiply;}.cls-3{fill:none;stroke:#0071bc;stroke-miterlimit:10;stroke-width:28px;}.cls-4{fill:#fff;}</style></defs><g class="cls-1"><g id="Camada_1" data-name="Camada 1"><image class="cls-2" width="480" height="189" transform="translate(7 92)" xlink:href="US%20-%20JobPrancheta%202%20c%C3%B3pia%2061.png"/><path class="cls-3" d="M80.77,158.48l5.77,7.26,3.32,4q9.63,11.9,9.64,25.17A33.22,33.22,0,0,1,91,217.53q-11.64,13.33-30.5,13.34-14.58,0-23.92-9t-9.33-23q0-17.16,14.53-28.62,7.7-6.08,14.22-6.08a7.85,7.85,0,0,1,5.51,2,6.49,6.49,0,0,1,2.13,5q0,4.13-4.89,7.14l-5,3.06a21.86,21.86,0,0,0-7.2,7.52,18.47,18.47,0,0,0-2.88,9.52,16.33,16.33,0,0,0,5,12.3,17.7,17.7,0,0,0,12.81,4.86,20.24,20.24,0,0,0,14.9-6.42A20.84,20.84,0,0,0,82.72,194a19.93,19.93,0,0,0-2.57-10q-2.57-4.5-11.09-14a58.27,58.27,0,0,1-8.51-11.52H43.64q-8.64,0-8.64-5.95a7.94,7.94,0,0,1,3-6.67q3-2.36,8.55-2.35H57.29A29.19,29.19,0,0,1,68.63,123q10.08-8.11,24.17-8.11,10.58,0,17.25,5.82a19.12,19.12,0,0,1,6.67,15.1q0,12.33-10.58,18.91-6,3.75-19.1,3.76Zm-7.51-15h15q12.7,0,12.71-7.39a5.35,5.35,0,0,0-2.6-4.64,12.25,12.25,0,0,0-6.92-1.75,19.86,19.86,0,0,0-12.3,4.2Q73.63,138.12,73.26,143.51Z"/><path class="cls-3" d="M126.49,182.9q0,4.69,7.08,4.7h18.6q7.89,0,7.89,5.57a7.05,7.05,0,0,1-2.79,6q-2.79,2.13-7.79,2.13H131.75q-9.9,0-15.06-4.89t-5.17-14.27a29.56,29.56,0,0,1,8.18-20.86q8.17-8.76,19.44-8.77,8.21,0,13.18,4.29a14.2,14.2,0,0,1,5,11.31q0,8.44-6.89,12.52Q146.6,182.9,139,182.9Zm3-11.4h6.89q6.69,0,6.51-2.94-.19-3.31-4.32-3.32Q132.82,165.24,129.5,171.5Z"/><path class="cls-3" d="M179.22,187.6h6.58q7.95,0,7.95,5.57a7.05,7.05,0,0,1-2.79,6q-2.78,2.13-7.79,2.13H171.9a11.26,11.26,0,0,1-7.33-2.19,7.19,7.19,0,0,1-2.69-5.89,20.45,20.45,0,0,1,1.81-6.45L189,124.47l.69-1.69q2.88-7,9.21-7a6.25,6.25,0,0,1,4.47,1.76,5.56,5.56,0,0,1,1.85,4.19,11.65,11.65,0,0,1-.94,4.26l-.69,1.69Z"/><path class="cls-3" d="M231.08,153.34h8.64q8,0,7.95,5.57a7.07,7.07,0,0,1-2.78,6q-2.79,2.13-7.8,2.13H225.57l-28.12,69.33q-3.51,8.58-9.77,8.58a6.71,6.71,0,0,1-4.64-1.69,5.44,5.44,0,0,1-1.88-4.2,19.26,19.26,0,0,1,1.63-5.95L209.66,167H205.4q-8,0-8-5.45a7.23,7.23,0,0,1,2.78-6q2.79-2.16,7.8-2.16h7.14l8-19.6q4-9.77,9.62-13.87t15-4.11h7.14q8,0,8,5.52a7.31,7.31,0,0,1-2.82,6.13q-2.82,2.21-7.83,2.2h-1.88c-3.5,0-6.27.71-8.29,2.12s-3.73,3.82-5.11,7.21Z"/><path class="cls-3" d="M257,187.6h7.08q7.89,0,7.89,5.57a7.05,7.05,0,0,1-2.79,6q-2.78,2.13-7.79,2.13h-10c-3.67,0-6.57-.75-8.67-2.26a7.13,7.13,0,0,1-3.17-6.13,14.49,14.49,0,0,1,1.32-5.26l10.33-25.43.69-1.75q2.88-7.08,9.27-7.08a6.52,6.52,0,0,1,4.54,1.75,5.52,5.52,0,0,1,1.91,4.2,18.38,18.38,0,0,1-1.69,6.14Zm8.27-54.24a8.67,8.67,0,1,1-6.17,2.54A8.41,8.41,0,0,1,265.27,133.36Z"/><path class="cls-3" d="M286.63,185.47a8.78,8.78,0,0,1,8.7,8.7,8.74,8.74,0,1,1-17.47,0,8.78,8.78,0,0,1,8.77-8.7Z"/><path class="cls-3" d="M381.69,187.6h7.45q7.89,0,7.89,5.57a7.07,7.07,0,0,1-2.78,6q-2.79,2.13-7.74,2.13H373.8a10,10,0,0,1-6.7-2.19,7.21,7.21,0,0,1-2.57-5.76,19.1,19.1,0,0,1,1.69-6.64l5.89-14.34a6.39,6.39,0,0,0,.5-2.32q0-4.06-4.13-4.07a9.41,9.41,0,0,0-6.33,2.88,20.26,20.26,0,0,0-5,7.64l-7,17.28q-3.45,8.4-10,8.4a6.22,6.22,0,0,1-4.39-1.7,5.27,5.27,0,0,1-1.81-4,12.08,12.08,0,0,1,.94-4.26l.69-1.69L342.61,173a10.37,10.37,0,0,0,.94-3.63A3.08,3.08,0,0,0,342.3,167a4.49,4.49,0,0,0-2.94-1q-6.76,0-10.71,9.77l-7.33,18q-3.45,8.46-10,8.46a6.4,6.4,0,0,1-4.41-1.66,5.25,5.25,0,0,1-1.85-4,11.69,11.69,0,0,1,.94-4.26l.69-1.69,12.46-30.69q2.63-6.45,7.89-6.45c3.63,0,5.89,1.71,6.76,5.14a31.84,31.84,0,0,1,6.93-4.83,16,16,0,0,1,6.54-1.19,13.64,13.64,0,0,1,12.59,7.33q7-7.32,15.78-7.33a14.84,14.84,0,0,1,10.05,3.48,10.87,10.87,0,0,1,4,8.55,17.3,17.3,0,0,1-1.38,6.57Z"/><path class="cls-3" d="M414.44,182.9q0,4.69,7.08,4.7h18.6q7.89,0,7.89,5.57a7.05,7.05,0,0,1-2.79,6q-2.78,2.13-7.79,2.13H419.7q-9.88,0-15.06-4.89t-5.16-14.27a29.55,29.55,0,0,1,8.17-20.86q8.18-8.76,19.44-8.77,8.21,0,13.19,4.29a14.2,14.2,0,0,1,5,11.31q0,8.44-6.89,12.52-3.83,2.32-11.4,2.32Zm3-11.4h6.89q6.71,0,6.51-2.94-.18-3.31-4.32-3.32Q420.77,165.24,417.45,171.5Z"/><image class="cls-2" width="452" height="161" transform="translate(21 106)" xlink:href="US%20-%20JobPrancheta%202%20c%C3%B3pia%2062.png"/><path class="cls-4" d="M80.77,158.48l5.77,7.26,3.32,4q9.63,11.9,9.64,25.17A33.22,33.22,0,0,1,91,217.53q-11.64,13.33-30.5,13.34-14.58,0-23.92-9t-9.33-23q0-17.16,14.53-28.62,7.7-6.08,14.22-6.08a7.85,7.85,0,0,1,5.51,2,6.49,6.49,0,0,1,2.13,5q0,4.13-4.89,7.14l-5,3.06a21.86,21.86,0,0,0-7.2,7.52,18.47,18.47,0,0,0-2.88,9.52,16.33,16.33,0,0,0,5,12.3,17.7,17.7,0,0,0,12.81,4.86,20.24,20.24,0,0,0,14.9-6.42A20.84,20.84,0,0,0,82.72,194a19.93,19.93,0,0,0-2.57-10q-2.57-4.5-11.09-14a58.27,58.27,0,0,1-8.51-11.52H43.64q-8.64,0-8.64-5.95a7.94,7.94,0,0,1,3-6.67q3-2.36,8.55-2.35H57.29A29.19,29.19,0,0,1,68.63,123q10.08-8.11,24.17-8.11,10.58,0,17.25,5.82a19.12,19.12,0,0,1,6.67,15.1q0,12.33-10.58,18.91-6,3.75-19.1,3.76Zm-7.51-15h15q12.7,0,12.71-7.39a5.35,5.35,0,0,0-2.6-4.64,12.25,12.25,0,0,0-6.92-1.75,19.86,19.86,0,0,0-12.3,4.2Q73.63,138.12,73.26,143.51Z"/><path class="cls-4" d="M126.49,182.9q0,4.69,7.08,4.7h18.6q7.89,0,7.89,5.57a7.05,7.05,0,0,1-2.79,6q-2.79,2.13-7.79,2.13H131.75q-9.9,0-15.06-4.89t-5.17-14.27a29.56,29.56,0,0,1,8.18-20.86q8.17-8.76,19.44-8.77,8.21,0,13.18,4.29a14.2,14.2,0,0,1,5,11.31q0,8.44-6.89,12.52Q146.6,182.9,139,182.9Zm3-11.4h6.89q6.69,0,6.51-2.94-.19-3.31-4.32-3.32Q132.82,165.24,129.5,171.5Z"/><path class="cls-4" d="M179.22,187.6h6.58q7.95,0,7.95,5.57a7.05,7.05,0,0,1-2.79,6q-2.78,2.13-7.79,2.13H171.9a11.26,11.26,0,0,1-7.33-2.19,7.19,7.19,0,0,1-2.69-5.89,20.45,20.45,0,0,1,1.81-6.45L189,124.47l.69-1.69q2.88-7,9.21-7a6.25,6.25,0,0,1,4.47,1.76,5.56,5.56,0,0,1,1.85,4.19,11.65,11.65,0,0,1-.94,4.26l-.69,1.69Z"/><path class="cls-4" d="M231.08,153.34h8.64q8,0,7.95,5.57a7.07,7.07,0,0,1-2.78,6q-2.79,2.13-7.8,2.13H225.57l-28.12,69.33q-3.51,8.58-9.77,8.58a6.71,6.71,0,0,1-4.64-1.69,5.44,5.44,0,0,1-1.88-4.2,19.26,19.26,0,0,1,1.63-5.95L209.66,167H205.4q-8,0-8-5.45a7.23,7.23,0,0,1,2.78-6q2.79-2.16,7.8-2.16h7.14l8-19.6q4-9.77,9.62-13.87t15-4.11h7.14q8,0,8,5.52a7.31,7.31,0,0,1-2.82,6.13q-2.82,2.21-7.83,2.2h-1.88c-3.5,0-6.27.71-8.29,2.12s-3.73,3.82-5.11,7.21Z"/><path class="cls-4" d="M257,187.6h7.08q7.89,0,7.89,5.57a7.05,7.05,0,0,1-2.79,6q-2.78,2.13-7.79,2.13h-10c-3.67,0-6.57-.75-8.67-2.26a7.13,7.13,0,0,1-3.17-6.13,14.49,14.49,0,0,1,1.32-5.26l10.33-25.43.69-1.75q2.88-7.08,9.27-7.08a6.52,6.52,0,0,1,4.54,1.75,5.52,5.52,0,0,1,1.91,4.2,18.38,18.38,0,0,1-1.69,6.14Zm8.27-54.24a8.67,8.67,0,1,1-6.17,2.54A8.41,8.41,0,0,1,265.27,133.36Z"/><path class="cls-4" d="M286.63,185.47a8.78,8.78,0,0,1,8.7,8.7,8.74,8.74,0,1,1-17.47,0,8.78,8.78,0,0,1,8.77-8.7Z"/><path class="cls-4" d="M381.69,187.6h7.45q7.89,0,7.89,5.57a7.07,7.07,0,0,1-2.78,6q-2.79,2.13-7.74,2.13H373.8a10,10,0,0,1-6.7-2.19,7.21,7.21,0,0,1-2.57-5.76,19.1,19.1,0,0,1,1.69-6.64l5.89-14.34a6.39,6.39,0,0,0,.5-2.32q0-4.06-4.13-4.07a9.41,9.41,0,0,0-6.33,2.88,20.26,20.26,0,0,0-5,7.64l-7,17.28q-3.45,8.4-10,8.4a6.22,6.22,0,0,1-4.39-1.7,5.27,5.27,0,0,1-1.81-4,12.08,12.08,0,0,1,.94-4.26l.69-1.69L342.61,173a10.37,10.37,0,0,0,.94-3.63A3.08,3.08,0,0,0,342.3,167a4.49,4.49,0,0,0-2.94-1q-6.76,0-10.71,9.77l-7.33,18q-3.45,8.46-10,8.46a6.4,6.4,0,0,1-4.41-1.66,5.25,5.25,0,0,1-1.85-4,11.69,11.69,0,0,1,.94-4.26l.69-1.69,12.46-30.69q2.63-6.45,7.89-6.45c3.63,0,5.89,1.71,6.76,5.14a31.84,31.84,0,0,1,6.93-4.83,16,16,0,0,1,6.54-1.19,13.64,13.64,0,0,1,12.59,7.33q7-7.32,15.78-7.33a14.84,14.84,0,0,1,10.05,3.48,10.87,10.87,0,0,1,4,8.55,17.3,17.3,0,0,1-1.38,6.57Z"/><path class="cls-4" d="M414.44,182.9q0,4.69,7.08,4.7h18.6q7.89,0,7.89,5.57a7.05,7.05,0,0,1-2.79,6q-2.78,2.13-7.79,2.13H419.7q-9.88,0-15.06-4.89t-5.16-14.27a29.55,29.55,0,0,1,8.17-20.86q8.18-8.76,19.44-8.77,8.21,0,13.19,4.29a14.2,14.2,0,0,1,5,11.31q0,8.44-6.89,12.52-3.83,2.32-11.4,2.32Zm3-11.4h6.89q6.71,0,6.51-2.94-.18-3.31-4.32-3.32Q420.77,165.24,417.45,171.5Z"/></g></g></svg>