<svg xmlns="http://www.w3.org/2000/svg" xmlns:xlink="http://www.w3.org/1999/xlink" viewBox="0 0 445 147"><defs><style>.cls-1{isolation:isolate;}.cls-2{opacity:0.75;mix-blend-mode:multiply;}</style></defs><g class="cls-1"><g id="Camada_1" data-name="Camada 1"><image class="cls-2" width="451" height="162" transform="translate(6 -6)" xlink:href="logo%20pretaPrancheta%202%20c%C3%B3pia%2061.png"/><path d="M65.65,46.58l5.77,7.27,3.31,4Q84.38,69.76,84.38,83a33.22,33.22,0,0,1-8.52,22.61Q64.22,119,45.36,119q-14.59,0-23.92-9T12.11,87q0-17.16,14.53-28.63,7.7-6.06,14.21-6.07a7.9,7.9,0,0,1,5.52,1.94,6.51,6.51,0,0,1,2.12,5q0,4.14-4.88,7.14l-5,3.07A21.86,21.86,0,0,0,31.4,77a18.44,18.44,0,0,0-2.88,9.51,16.37,16.37,0,0,0,5,12.31,17.69,17.69,0,0,0,12.81,4.85,20.25,20.25,0,0,0,14.9-6.42A20.83,20.83,0,0,0,67.6,82.09a19.93,19.93,0,0,0-2.57-10q-2.56-4.51-11.09-14a58,58,0,0,1-8.51-11.52H28.52q-8.64,0-8.64-5.95a8,8,0,0,1,3-6.67c2-1.56,4.88-2.35,8.55-2.35H42.17A29.23,29.23,0,0,1,53.5,11.1Q63.6,3,77.68,3,88.26,3,94.93,8.82a19.08,19.08,0,0,1,6.67,15.09q0,12.35-10.58,18.91-6,3.76-19.1,3.76Zm-7.51-15h15q12.7,0,12.71-7.39a5.34,5.34,0,0,0-2.6-4.63,12.17,12.17,0,0,0-6.92-1.75A19.92,19.92,0,0,0,64.06,22Q58.51,26.23,58.14,31.61Z"/><path d="M111.37,71q0,4.69,7.08,4.69h18.6q7.89,0,7.89,5.58a7.07,7.07,0,0,1-2.79,6c-1.86,1.42-4.46,2.12-7.8,2.12H116.63q-9.9,0-15.06-4.88T96.4,70.19a29.52,29.52,0,0,1,8.18-20.85q8.16-8.78,19.44-8.77,8.21,0,13.18,4.29a14.19,14.19,0,0,1,5,11.3q0,8.46-6.89,12.53Q131.48,71,123.9,71Zm3-11.4h6.89q6.69,0,6.51-3-.19-3.31-4.32-3.31Q117.7,53.35,114.38,59.61Z"/><path d="M164.1,75.7h6.58q7.95,0,7.95,5.58a7.07,7.07,0,0,1-2.79,6c-1.85,1.42-4.45,2.12-7.79,2.12H156.77a11.19,11.19,0,0,1-7.32-2.19,7.18,7.18,0,0,1-2.7-5.88q0-1.95,1.82-6.45l25.3-62.25.69-1.69q2.88-7,9.21-7a6.29,6.29,0,0,1,4.47,1.75,5.6,5.6,0,0,1,1.85,4.2,11.73,11.73,0,0,1-.94,4.26l-.69,1.69Z"/><path d="M216,41.45h8.64q8,0,8,5.57A7.05,7.05,0,0,1,229.76,53Q227,55.1,222,55.1H210.44l-28.11,69.33q-3.51,8.58-9.77,8.58a6.67,6.67,0,0,1-4.64-1.7,5.4,5.4,0,0,1-1.88-4.19,19.19,19.19,0,0,1,1.63-6L194.54,55.1h-4.26q-8,0-7.95-5.45a7.19,7.19,0,0,1,2.78-6q2.79-2.16,7.8-2.16h7.14L208,21.84q4-9.76,9.62-13.87t15-4.1h7.14q8,0,8,5.51A7.33,7.33,0,0,1,245,15.52q-2.82,2.19-7.83,2.19h-1.88c-3.5,0-6.27.71-8.29,2.13s-3.73,3.82-5.11,7.2Z"/><path d="M241.88,75.7H249q7.89,0,7.89,5.58a7.07,7.07,0,0,1-2.79,6c-1.85,1.42-4.45,2.12-7.79,2.12h-10q-5.52,0-8.67-2.25A7.15,7.15,0,0,1,224.47,81a14.54,14.54,0,0,1,1.32-5.26l10.33-25.42.69-1.76q2.88-7.07,9.27-7.07a6.5,6.5,0,0,1,4.54,1.75,5.52,5.52,0,0,1,1.91,4.2,18.34,18.34,0,0,1-1.69,6.13Zm8.27-54.23a8.66,8.66,0,0,1,8.7,8.7,8.71,8.71,0,1,1-17.41,0,8.67,8.67,0,0,1,8.71-8.7Z"/><path d="M271.5,73.57a8.74,8.74,0,0,1,0,17.48,8.76,8.76,0,0,1-8.76-8.77,8.38,8.38,0,0,1,2.56-6.14A8.47,8.47,0,0,1,271.5,73.57Z"/><path d="M366.57,75.7H374q7.89,0,7.89,5.58a7.09,7.09,0,0,1-2.78,6c-1.86,1.42-4.44,2.12-7.74,2.12H358.68a9.9,9.9,0,0,1-6.7-2.19,7.21,7.21,0,0,1-2.57-5.76,19.1,19.1,0,0,1,1.69-6.64L357,60.42a6.35,6.35,0,0,0,.5-2.32q0-4.07-4.13-4.07A9.41,9.41,0,0,0,347,56.91a20.3,20.3,0,0,0-5,7.65l-7,17.28q-3.45,8.4-10,8.39a6.19,6.19,0,0,1-4.39-1.69,5.3,5.3,0,0,1-1.81-4,12.08,12.08,0,0,1,.94-4.26l.69-1.69,7.07-17.47a10.42,10.42,0,0,0,.94-3.63,3.07,3.07,0,0,0-1.25-2.41,4.5,4.5,0,0,0-2.94-1q-6.76,0-10.71,9.77l-7.33,18q-3.45,8.44-10,8.45a6.35,6.35,0,0,1-4.41-1.66,5.19,5.19,0,0,1-1.85-4,11.73,11.73,0,0,1,.94-4.26l.69-1.69L304.07,47.9q2.63-6.45,7.89-6.45c3.63,0,5.89,1.71,6.76,5.13a32,32,0,0,1,6.92-4.82,16.11,16.11,0,0,1,6.55-1.19,13.62,13.62,0,0,1,12.59,7.33q7-7.34,15.78-7.33a14.84,14.84,0,0,1,10.05,3.48,10.84,10.84,0,0,1,4,8.54,17.39,17.39,0,0,1-1.38,6.58Z"/><path d="M399.32,71q0,4.69,7.08,4.69H425q7.89,0,7.89,5.58a7.07,7.07,0,0,1-2.79,6c-1.85,1.42-4.45,2.12-7.79,2.12H404.58q-9.88,0-15.06-4.88t-5.16-14.28a29.51,29.51,0,0,1,8.17-20.85q8.18-8.78,19.44-8.77,8.2,0,13.19,4.29a14.18,14.18,0,0,1,5,11.3q0,8.46-6.88,12.53Q419.42,71,411.85,71Zm3-11.4h6.89q6.7,0,6.51-3-.18-3.31-4.32-3.31Q405.65,53.35,402.33,59.61Z"/></g></g></svg>