<svg id="Camada_1" data-name="Camada 1" xmlns="http://www.w3.org/2000/svg" viewBox="0 0 473.56 328"><path d="M236.91,20.38c79.16.06,143.63,64.75,143.5,144s-65,143.5-144.22,143.25c-78.73-.24-143-64.73-143-143.51C93.11,84.92,157.72,20.33,236.91,20.38ZM107.13,163.53c-.09,72.1,57.27,130,129,130.13,72.16.14,130.15-57.14,130.34-128.74C366.62,92.31,309.23,34.4,237,34.34A129.16,129.16,0,0,0,107.13,163.53Z"/><path d="M236.8,158.13c6.37,0,12.74-.08,19.1,0,26.92.36,46.36,19.07,47.61,46,.3,6.35.1,12.73.11,19.09,0,15,0,15.13-14.82,19.2-37.21,10.2-74.21,9.43-111.09-2-5.87-1.81-8.34-4.57-7.9-10.93.71-10.25-.29-20.68,1-30.84,2.89-23.47,21.62-39.88,45.12-40.48C222.86,158,229.83,158.14,236.8,158.13Z"/><path d="M271.72,113.38a35,35,0,1,1-35.5-34.86A35.2,35.2,0,0,1,271.72,113.38Z"/></svg>