<svg xmlns="http://www.w3.org/2000/svg" xmlns:xlink="http://www.w3.org/1999/xlink" viewBox="0 0 473.56 328"><defs><style>.cls-1{isolation:isolate;}.cls-2{opacity:0.75;mix-blend-mode:multiply;}</style></defs><g class="cls-1"><g id="Camada_1" data-name="Camada 1"><image class="cls-2" width="291" height="296" transform="translate(98 23)" xlink:href="US%20-%20JobPrancheta%2020%20c%C3%B3pia%2021.png"/><path d="M171.71,231.91H333.13c6.55,0,10,5.52,7.1,11.47a5.74,5.74,0,0,1-5.05,3.43c-1.5.09-3,.05-4.51.05H158.16c-1,0-2.06,0-3.08-.07-2.15-.23-4-1.34-4.49-3.37-.91-4.13-1.74-8.26,1.61-12.05,7.3-8.25,14.33-16.72,21.54-25a4.3,4.3,0,0,0,1-4.27c-7.85-34.26-15.73-68.51-23.38-102.82C148,83.88,145,68.41,142,53c-.43-2.18-1.39-2.76-3.36-3-8.47-1.18-16.92-2.49-25.37-3.78-4.51-.68-7-3.83-6.52-8,.61-4.85,3.69-7.44,8.5-6.76,11.91,1.69,23.81,3.53,35.71,5.3,2.3.34,3.32,1.73,3.78,3.93,3.69,18,7.49,36,11.12,54,.44,2.2,1.29,2.7,3.4,2.7q94.69-.08,189.38,0c.47,0,.95,0,1.42,0,5.37.11,8.13,3.91,6.36,9-3.8,10.92-7.69,21.8-11.55,32.7q-10.45,29.55-20.92,59.1c-1.55,4.34-3.47,5.64-8.11,5.92l-98.89,6c-11.86.72-23.71,1.47-35.58,2.09a6,6,0,0,0-4.82,2.36c-4.21,5.15-8.6,10.15-12.91,15.21C173.09,230.15,172.62,230.78,171.71,231.91Z"/><path d="M198.34,296.74a22.76,22.76,0,1,1,22.75-22.86A22.71,22.71,0,0,1,198.34,296.74Z"/><path d="M302.08,296.75a22.77,22.77,0,1,1,23-22.64A22.64,22.64,0,0,1,302.08,296.75Z"/></g></g></svg>