<svg xmlns="http://www.w3.org/2000/svg" xmlns:xlink="http://www.w3.org/1999/xlink" viewBox="0 0 473.56 328"><defs><style>.cls-1{isolation:isolate;}.cls-2{opacity:0.75;mix-blend-mode:multiply;}</style></defs><g class="cls-1"><g id="Camada_1" data-name="Camada 1"><image class="cls-2" width="343" height="312" transform="translate(72 15)" xlink:href="US%20-%20JobPrancheta%2020%20c%C3%B3pia1.png"/><path d="M236.73,55.37c8.25-6,16.43-13,25.58-18.36,50.23-29.39,112.38-4.88,127.35,50.14,8.15,30,.57,57-18.52,80.43-11.47,14.1-24.9,26.62-37.75,39.56Q286.86,254,240,300.58c-1,1-2.21,1.94-4.11,3.59-4-4.3-7.73-8.57-11.73-12.57Q168.69,236,113.09,180.41c-17.23-17.28-29.78-37.29-32-62.09C78,83.87,91.51,56.54,120.29,37.87c29.07-18.84,59.56-18.11,89.47-1.49C219.32,41.7,227.78,49,236.73,55.37Z"/></g></g></svg>